# Exported from Figuro at https://www.figuro.io

mtllib newscene.mtl
o cube13
v -256 0 -896
v 256 0 -896
v 256 128 -896
v -256 128 -896
v 256 0 0
v 256 128 0
v -256 0 0
v -256 128 0
# 8 vertices
vt 1 1
vt -1 1
vt -1 1.5
vt 1 1.5
vt 3.5 1
vt 0 1
vt 0 1.5
vt 3.5 1.5
vt 1 1
vt -1 1
vt -1 1.5
vt 1 1.5
vt 0 1
vt -3.5 1
vt -3.5 1.5
vt 0 1.5
vt -1 1
vt 1 1
vt 1 -2.5
vt -1 -2.5
vt -1 4.5
vt 1 4.5
vt 1 1
vt -1 1
# 24 uvs
vn -0.3333333333333333 -0.3333333333333333 -0.3333333333333333
vn 0.3333333333333333 -0.3333333333333333 -0.3333333333333333
vn 0.3333333333333333 0.3333333333333333 -0.3333333333333333
vn -0.3333333333333333 0.3333333333333333 -0.3333333333333333
vn 0.3333333333333333 -0.3333333333333333 0.3333333333333333
vn 0.3333333333333333 0.3333333333333333 0.3333333333333333
vn -0.3333333333333333 -0.3333333333333333 0.3333333333333333
vn -0.3333333333333333 0.3333333333333333 0.3333333333333333
# 8 normals
usemtl ea9999
f 4/4/4 3/3/3 2/2/2 1/1/1 
f 3/8/3 6/7/6 5/6/5 2/5/2 
f 6/12/6 8/11/8 7/10/7 5/9/5 
f 8/16/8 4/15/4 1/14/1 7/13/7 
f 1/20/1 2/19/2 5/18/5 7/17/7 
f 8/24/8 6/23/6 3/22/3 4/21/4 
# 6 polygons
o cube14
v -384 0 -128
v -256 0 -128
v -256 128 -128
v -384 128 -128
v -256 0 0
v -256 128 0
v -384 0 0
v -384 128 0
# 8 vertices
vt 1.5 1
vt 1 1
vt 1 1.5
vt 1.5 1.5
vt 0.5 1
vt 0 1
vt 0 1.5
vt 0.5 1.5
vt -1 1
vt -1.5 1
vt -1.5 1.5
vt -1 1.5
vt 0 1
vt -0.5 1
vt -0.5 1.5
vt 0 1.5
vt -1.5 1
vt -1 1
vt -1 0.5
vt -1.5 0.5
vt -1.5 1.5
vt -1 1.5
vt -1 1
vt -1.5 1
# 24 uvs
vn -0.3333333333333333 -0.3333333333333333 -0.3333333333333333
vn 0.3333333333333333 -0.3333333333333333 -0.3333333333333333
vn 0.3333333333333333 0.3333333333333333 -0.3333333333333333
vn -0.3333333333333333 0.3333333333333333 -0.3333333333333333
vn 0.3333333333333333 -0.3333333333333333 0.3333333333333333
vn 0.3333333333333333 0.3333333333333333 0.3333333333333333
vn -0.3333333333333333 -0.3333333333333333 0.3333333333333333
vn -0.3333333333333333 0.3333333333333333 0.3333333333333333
# 8 normals
usemtl f0dc82
f 12/28/12 11/27/11 10/26/10 9/25/9 
f 11/32/11 14/31/14 13/30/13 10/29/10 
f 14/36/14 16/35/16 15/34/15 13/33/13 
f 16/40/16 12/39/12 9/38/9 15/37/15 
f 9/44/9 10/43/10 13/42/13 15/41/15 
f 16/48/16 14/47/14 11/46/11 12/45/12 
# 6 polygons
o cube15
v -384 0 -896
v -256 0 -896
v -256 128 -896
v -384 128 -896
v -256 0 -768
v -256 128 -768
v -384 0 -768
v -384 128 -768
# 8 vertices
vt 1.5 1
vt 1 1
vt 1 1.5
vt 1.5 1.5
vt 3.5 1
vt 3 1
vt 3 1.5
vt 3.5 1.5
vt -1 1
vt -1.5 1
vt -1.5 1.5
vt -1 1.5
vt -3 1
vt -3.5 1
vt -3.5 1.5
vt -3 1.5
vt -1.5 -2
vt -1 -2
vt -1 -2.5
vt -1.5 -2.5
vt -1.5 4.5
vt -1 4.5
vt -1 4
vt -1.5 4
# 24 uvs
vn -0.3333333333333333 -0.3333333333333333 -0.3333333333333333
vn 0.3333333333333333 -0.3333333333333333 -0.3333333333333333
vn 0.3333333333333333 0.3333333333333333 -0.3333333333333333
vn -0.3333333333333333 0.3333333333333333 -0.3333333333333333
vn 0.3333333333333333 -0.3333333333333333 0.3333333333333333
vn 0.3333333333333333 0.3333333333333333 0.3333333333333333
vn -0.3333333333333333 -0.3333333333333333 0.3333333333333333
vn -0.3333333333333333 0.3333333333333333 0.3333333333333333
# 8 normals
usemtl f9cb9c
f 20/52/20 19/51/19 18/50/18 17/49/17 
f 19/56/19 22/55/22 21/54/21 18/53/18 
f 22/60/22 24/59/24 23/58/23 21/57/21 
f 24/64/24 20/63/20 17/62/17 23/61/23 
f 17/68/17 18/67/18 21/66/21 23/65/23 
f 24/72/24 22/71/22 19/70/19 20/69/20 
# 6 polygons
o cube16
v 256 0 -896
v 384 0 -896
v 384 128 -896
v 256 128 -896
v 384 0 -768
v 384 128 -768
v 256 0 -768
v 256 128 -768
# 8 vertices
vt -1 1
vt -1.5 1
vt -1.5 1.5
vt -1 1.5
vt 3.5 1
vt 3 1
vt 3 1.5
vt 3.5 1.5
vt 1.5 1
vt 1 1
vt 1 1.5
vt 1.5 1.5
vt -3 1
vt -3.5 1
vt -3.5 1.5
vt -3 1.5
vt 1 -2
vt 1.5 -2
vt 1.5 -2.5
vt 1 -2.5
vt 1 4.5
vt 1.5 4.5
vt 1.5 4
vt 1 4
# 24 uvs
vn -0.3333333333333333 -0.3333333333333333 -0.3333333333333333
vn 0.3333333333333333 -0.3333333333333333 -0.3333333333333333
vn 0.3333333333333333 0.3333333333333333 -0.3333333333333333
vn -0.3333333333333333 0.3333333333333333 -0.3333333333333333
vn 0.3333333333333333 -0.3333333333333333 0.3333333333333333
vn 0.3333333333333333 0.3333333333333333 0.3333333333333333
vn -0.3333333333333333 -0.3333333333333333 0.3333333333333333
vn -0.3333333333333333 0.3333333333333333 0.3333333333333333
# 8 normals
usemtl 8c92ac
f 28/76/28 27/75/27 26/74/26 25/73/25 
f 27/80/27 30/79/30 29/78/29 26/77/26 
f 30/84/30 32/83/32 31/82/31 29/81/29 
f 32/88/32 28/87/28 25/86/25 31/85/31 
f 25/92/25 26/91/26 29/90/29 31/89/31 
f 32/96/32 30/95/30 27/94/27 28/93/28 
# 6 polygons
o cube17
v 256 0 -128
v 384 0 -128
v 384 128 -128
v 256 128 -128
v 384 0 0
v 384 128 0
v 256 0 0
v 256 128 0
# 8 vertices
vt -1 1
vt -1.5 1
vt -1.5 1.5
vt -1 1.5
vt 0.5 1
vt 0 1
vt 0 1.5
vt 0.5 1.5
vt 1.5 1
vt 1 1
vt 1 1.5
vt 1.5 1.5
vt 0 1
vt -0.5 1
vt -0.5 1.5
vt 0 1.5
vt 1 1
vt 1.5 1
vt 1.5 0.5
vt 1 0.5
vt 1 1.5
vt 1.5 1.5
vt 1.5 1
vt 1 1
# 24 uvs
vn -0.3333333333333333 -0.3333333333333333 -0.3333333333333333
vn 0.3333333333333333 -0.3333333333333333 -0.3333333333333333
vn 0.3333333333333333 0.3333333333333333 -0.3333333333333333
vn -0.3333333333333333 0.3333333333333333 -0.3333333333333333
vn 0.3333333333333333 -0.3333333333333333 0.3333333333333333
vn 0.3333333333333333 0.3333333333333333 0.3333333333333333
vn -0.3333333333333333 -0.3333333333333333 0.3333333333333333
vn -0.3333333333333333 0.3333333333333333 0.3333333333333333
# 8 normals
usemtl b38b6d
f 36/100/36 35/99/35 34/98/34 33/97/33 
f 35/104/35 38/103/38 37/102/37 34/101/34 
f 38/108/38 40/107/40 39/106/39 37/105/37 
f 40/112/40 36/111/36 33/110/33 39/109/39 
f 33/116/33 34/115/34 37/114/37 39/113/39 
f 40/120/40 38/119/38 35/118/35 36/117/36 
# 6 polygons
o cube21
v -256 128 -512
v -256 128 0
v -256 256 0
v -256 256 -512
v 256 128 0
v 256 256 0
v 256 128 -512
v 256 256 -512
# 8 vertices
vt -2 2
vt 0 2
vt 0 1.5
vt -2 1.5
vt -1 2
vt 1 2
vt 1 1.5
vt -1 1.5
vt 0 2
vt 2 2
vt 2 1.5
vt 0 1.5
vt -1 2
vt 1 2
vt 1 1.5
vt -1 1.5
vt -1 -1
vt -1 1
vt 1 1
vt 1 -1
vt 1 3
vt 1 1
vt -1 1
vt -1 3
# 24 uvs
vn -0.3333333333333333 -0.3333333333333333 -0.3333333333333333
vn -0.3333333333333333 -0.3333333333333333 0.3333333333333333
vn -0.3333333333333333 0.3333333333333333 0.3333333333333333
vn -0.3333333333333333 0.3333333333333333 -0.3333333333333333
vn 0.3333333333333333 -0.3333333333333333 0.3333333333333333
vn 0.3333333333333333 0.3333333333333333 0.3333333333333333
vn 0.3333333333333333 -0.3333333333333333 -0.3333333333333333
vn 0.3333333333333333 0.3333333333333333 -0.3333333333333333
# 8 normals
usemtl 8ab9f1
f 41/124/41 42/123/42 43/122/43 44/121/44 
f 42/128/42 45/127/45 46/126/46 43/125/43 
f 45/132/45 47/131/47 48/130/48 46/129/46 
f 47/136/47 41/135/41 44/134/44 48/133/48 
f 47/140/47 45/139/45 42/138/42 41/137/41 
f 44/144/44 43/143/43 46/142/46 48/141/48 
# 6 polygons